HIERARCHY
ROOT Hips
{
	OFFSET -8.665500 -1.496397 44.816700
	CHANNELS 6 Xposition Yposition Zposition Zrotation Xrotation Yrotation
	JOINT Chest
	{
		OFFSET -0.698600 0.806100 5.350899
		CHANNELS 6 Xposition Yposition Zposition Zrotation Xrotation Yrotation
		JOINT Chest2
		{
			OFFSET 0.000000 0.000000 4.409100
			CHANNELS 6 Xposition Yposition Zposition Zrotation Xrotation Yrotation
			JOINT Neck
			{
				OFFSET 0.000000 0.000001 10.248299
				CHANNELS 6 Xposition Yposition Zposition Zrotation Xrotation Yrotation
				JOINT Head
				{
					OFFSET 0.000000 0.000000 2.173897
					CHANNELS 6 Xposition Yposition Zposition Zrotation Xrotation Yrotation
					End Site
					{
						OFFSET 0.000000 0.000001 9.966400
					}
				}
			}
			JOINT LeftCollar
			{
				OFFSET 2.100600 -0.520900 6.016098
				CHANNELS 6 Xposition Yposition Zposition Zrotation Xrotation Yrotation
				JOINT LeftShoulder
				{
					OFFSET 5.536700 0.000000 0.000000
					CHANNELS 6 Xposition Yposition Zposition Zrotation Xrotation Yrotation
					JOINT LeftElbow
					{
						OFFSET 0.000000 -0.000001 -12.362099
						CHANNELS 6 Xposition Yposition Zposition Zrotation Xrotation Yrotation
						JOINT LeftWrist
						{
							OFFSET 0.000000 -0.000001 -10.273201
							CHANNELS 6 Xposition Yposition Zposition Zrotation Xrotation Yrotation
							End Site
							{
								OFFSET 0.000000 -0.000000 -2.173901
							}
						}
					}
				}
			}
			JOINT RightCollar
			{
				OFFSET -2.899500 -1.655900 6.981701
				CHANNELS 6 Xposition Yposition Zposition Zrotation Xrotation Yrotation
				JOINT RightShoulder
				{
					OFFSET -4.387501 0.000000 0.000000
					CHANNELS 6 Xposition Yposition Zposition Zrotation Xrotation Yrotation
					JOINT RightElbow
					{
						OFFSET 0.000000 -0.000001 -10.858101
						CHANNELS 6 Xposition Yposition Zposition Zrotation Xrotation Yrotation
						JOINT RightWrist
						{
							OFFSET 0.000000 -0.000001 -12.079601
							CHANNELS 6 Xposition Yposition Zposition Zrotation Xrotation Yrotation
							End Site
							{
								OFFSET 0.000000 0.000000 -2.173901
							}
						}
					}
				}
			}
		}
	}
	JOINT LeftHip
	{
		OFFSET 2.190800 0.073900 -2.522499
		CHANNELS 6 Xposition Yposition Zposition Zrotation Xrotation Yrotation
		JOINT LeftKnee
		{
			OFFSET 0.000000 -0.000002 -20.305000
			CHANNELS 6 Xposition Yposition Zposition Zrotation Xrotation Yrotation
			JOINT LeftAnkle
			{
				OFFSET 0.000000 -0.000001 -16.771700
				CHANNELS 6 Xposition Yposition Zposition Zrotation Xrotation Yrotation
				End Site
				{
					OFFSET 0.000000 -8.738000 0.000001
				}
			}
		}
	}
	JOINT RightHip
	{
		OFFSET -2.029500 0.054300 -2.705200
		CHANNELS 6 Xposition Yposition Zposition Zrotation Xrotation Yrotation
		JOINT RightKnee
		{
			OFFSET 0.000000 -0.000002 -20.030399
			CHANNELS 6 Xposition Yposition Zposition Zrotation Xrotation Yrotation
			JOINT RightAnkle
			{
				OFFSET 0.000000 -0.000001 -17.032700
				CHANNELS 6 Xposition Yposition Zposition Zrotation Xrotation Yrotation
				End Site
				{
					OFFSET 0.000000 -8.823600 0.000001
				}
			}
		}
	}
}
MOTION
Frames: 10
Frame Time: 0.041667
12.379603 23.690407 47.030396 2892.090061 -2.874136 7.723855 -0.698601 0.806099 5.350900 -9.073377 29.596419 2.967493 0.000000 0.000000 4.409098 3.399482 -1.404738 0.353427 0.000001 -0.000004 10.248304 8.999584 45.830668 -5.974565 -0.000000 -0.000010 2.173894 -0.006633 0.905306 -0.010495 2.100599 -0.520905 6.016110 -6.669278 4.244991 -1.018945 5.536697 -0.000007 -0.000001 -46.262691 -5.051859 -18.647969 -0.000001 0.000001 -12.362091 -2832.309842 -2.899013 3.090768 -0.000003 -0.000003 -10.273191 1525.720444 159.813340 -196.420968 -2.899502 -1.655905 6.981704 21.897593 9.461187 -7.701563 -4.387499 0.000003 -0.000005 -1243.247753 -534.847689 -153.346940 0.000001 -0.000001 -10.858113 191.654138 189.050607 176.751144 -0.000002 -0.000003 -12.079611 -109.461056 -183.516501 145.320403 2.190796 0.073899 -2.522499 -864.818936 -159.794106 -178.600253 0.000002 -0.000007 -20.305008 -391.820359 43.885249 8.480427 -0.000000 -0.000001 -16.771702 1449.458705 25.498891 13.619675 -2.029502 0.054298 -2.705203 -389.476538 -11.419526 -5.247712 0.000001 0.000002 -20.030397 370.187756 60.918164 3.827354 -0.000000 -0.000001 -17.032700 17.040154 35.566629 -4.810881
12.520003 23.386806 47.232994 2891.977500 -2.718799 7.725087 -0.698598 0.806100 5.350895 -9.073305 28.606103 2.775448 0.000001 0.000002 4.409098 3.160006 -1.226200 0.340741 -0.000001 0.000008 10.248298 8.798216 46.053466 -5.434207 -0.000001 0.000003 2.173906 0.046417 1.189452 0.061324 2.100600 -0.520896 6.016104 -6.819610 4.420567 -1.290938 5.536701 -0.000004 0.000009 -45.990710 -3.887123 -18.737495 0.000000 -0.000001 -12.362086 -2831.676437 -4.148105 6.052500 -0.000002 -0.000002 -10.273196 1519.583328 164.540241 -185.258062 -2.899502 -1.655895 6.981704 21.569321 9.684123 -6.846468 -4.387496 0.000005 -0.000002 -1244.363533 -535.239742 -154.199239 -0.000000 -0.000007 -10.858100 189.127105 191.496320 174.780047 -0.000001 0.000002 -12.079599 -105.318799 -181.969244 143.602405 2.190801 0.073903 -2.522505 -866.113503 -160.483846 -179.492139 0.000000 -0.000004 -20.305000 -389.792312 42.810034 7.800406 0.000003 -0.000004 -16.771702 1448.105890 26.636112 14.424859 -2.029497 0.054299 -2.705205 -390.002927 -11.739440 -5.152278 0.000002 -0.000000 -20.030401 369.478755 60.164111 4.485974 -0.000001 0.000000 -17.032701 15.380888 35.540223 -3.739488
12.650704 23.093208 47.409191 2891.814450 -2.838868 7.546593 -0.698602 0.806102 5.350895 -9.097591 27.941945 2.948009 0.000000 0.000001 4.409105 3.050769 -1.071911 0.308536 -0.000001 -0.000005 10.248302 8.764835 46.129861 -5.278291 -0.000001 -0.000005 2.173898 0.047105 1.450759 0.180849 2.100600 -0.520905 6.016104 -6.808206 4.322942 -1.729466 5.536699 -0.000005 0.000002 -46.080865 -2.559175 -18.773518 0.000002 0.000004 -12.362098 -2830.857252 -5.260608 9.146268 -0.000000 0.000001 -10.273195 1516.126159 169.243755 -176.786510 -2.899501 -1.655909 6.981702 20.536154 9.363149 -5.644340 -4.387495 0.000004 -0.000001 -1244.999123 -536.125426 -155.421638 0.000004 -0.000005 -10.858110 186.411668 193.758178 172.557284 0.000004 -0.000001 -12.079603 -101.756602 -181.310992 143.962629 2.190798 0.073902 -2.522496 -867.399600 -161.510806 -180.364956 -0.000003 -0.000007 -20.305002 -387.429558 41.677336 7.047715 0.000004 -0.000004 -16.771702 1446.783784 27.737967 15.028873 -2.029501 0.054300 -2.705203 -390.164721 -11.899179 -4.788820 0.000002 -0.000001 -20.030396 367.982944 59.077817 5.594949 0.000000 -0.000002 -17.032700 13.768581 35.142860 -3.176444
12.771003 22.811005 47.565395 2891.622330 -2.795753 7.399414 -0.698597 0.806102 5.350896 -9.082975 27.068361 3.040040 0.000003 0.000002 4.409111 2.826528 -0.888892 0.324493 0.000002 0.000003 10.248296 8.796656 46.172820 -5.127302 -0.000001 -0.000002 2.173897 0.195796 1.663984 0.334775 2.100598 -0.520898 6.016110 -6.642192 4.047235 -2.390962 5.536698 -0.000007 0.000004 -45.709907 -1.321991 -18.482379 -0.000000 -0.000003 -12.362088 -2830.450063 -6.406959 12.380957 -0.000004 -0.000002 -10.273200 1514.669854 173.924415 -170.459365 -2.899500 -1.655895 6.981710 19.591820 8.718411 -4.221550 -4.387502 -0.000003 -0.000007 -1245.735472 -537.229841 -156.908611 0.000000 -0.000007 -10.858099 184.097340 195.799530 170.205336 -0.000001 0.000002 -12.079604 -98.763620 -179.866379 143.264037 2.190800 0.073902 -2.522498 -868.772796 -162.432595 -181.156274 -0.000002 -0.000007 -20.305004 -385.555327 40.466251 6.691775 0.000001 0.000000 -16.771700 1445.931813 28.837708 15.693341 -2.029499 0.054300 -2.705198 -390.674280 -12.267059 -4.641337 0.000001 -0.000003 -20.030396 366.393477 57.842400 6.930668 0.000000 0.000001 -17.032705 12.508814 34.729914 -2.741119
12.891704 22.533009 47.696896 2891.418845 -2.809470 7.232186 -0.698604 0.806101 5.350897 -9.049412 26.315809 3.167628 -0.000000 0.000001 4.409102 2.548277 -0.729196 0.333725 0.000002 0.000008 10.248294 8.710570 46.124032 -4.865065 0.000001 0.000002 2.173898 0.325516 1.949188 0.252680 2.100599 -0.520899 6.016097 -6.357719 3.735460 -3.058415 5.536699 -0.000003 -0.000001 -45.349604 -0.048332 -18.288281 0.000002 0.000001 -12.362096 -2830.006811 -7.520629 15.895739 -0.000003 -0.000002 -10.273190 1513.576914 177.982190 -165.433534 -2.899500 -1.655897 6.981702 18.587062 7.892950 -3.031719 -4.387502 -0.000004 0.000004 -1246.315000 -538.582109 -158.016385 0.000001 -0.000006 -10.858104 181.058671 197.581294 167.545824 0.000004 0.000000 -12.079604 -95.983344 -178.462120 142.586291 2.190796 0.073899 -2.522503 -869.988461 -163.392673 -181.826616 -0.000003 -0.000005 -20.305004 -383.790624 39.352357 6.349215 0.000005 -0.000004 -16.771704 1445.194590 29.797096 16.226834 -2.029503 0.054299 -2.705204 -391.047946 -12.570903 -4.462549 0.000001 0.000002 -20.030396 359.844664 55.662814 11.914329 -0.000000 -0.000001 -17.032703 14.113014 34.644909 -1.373179
12.997901 22.272207 47.807392 2891.187602 -2.730425 7.156307 -0.698600 0.806101 5.350898 -8.937936 25.522098 3.170824 0.000001 0.000002 4.409106 2.281419 -0.567415 0.342843 0.000003 0.000009 10.248293 8.719620 45.998565 -4.741354 0.000001 -0.000001 2.173898 0.252619 2.205600 0.173844 2.100602 -0.520894 6.016097 -6.029175 3.422293 -3.672177 5.536699 -0.000004 0.000007 -45.008891 1.239003 -18.216268 0.000001 -0.000001 -12.362096 -2829.476133 -8.657173 19.483695 -0.000002 -0.000002 -10.273190 1513.155410 179.816696 -163.273432 -2.899498 -1.655892 6.981703 17.976219 7.007375 -1.719811 -4.387501 -0.000006 -0.000003 -1247.155168 -539.959457 -159.141113 -0.000003 -0.000006 -10.858102 178.158627 199.205145 164.734259 0.000002 0.000002 -12.079595 -93.672814 -177.048093 141.809153 2.190800 0.073897 -2.522504 -871.032387 -164.145128 -182.395871 -0.000002 -0.000005 -20.305004 -381.891723 38.357987 5.877715 0.000002 -0.000002 -16.771704 1444.389721 30.672672 16.789525 -2.029499 0.054295 -2.705203 -391.159360 -12.907769 -4.449481 0.000001 -0.000001 -20.030397 360.803623 54.325340 10.815740 0.000000 -0.000002 -17.032700 12.209148 34.168086 -0.953552
13.088904 22.020710 47.899700 2890.852540 -2.564507 7.069730 -0.698598 0.806104 5.350896 -8.723548 24.657973 3.191850 0.000003 0.000008 4.409099 2.035196 -0.423061 0.341130 0.000000 0.000006 10.248297 8.698030 45.819559 -4.596255 -0.000001 -0.000003 2.173904 0.434561 2.417064 0.117357 2.100600 -0.520900 6.016099 -5.807597 3.217435 -4.292379 5.536697 -0.000003 0.000004 -44.492989 2.419907 -18.254312 0.000001 0.000003 -12.362102 -2828.935400 -9.724810 23.231417 0.000000 -0.000005 -10.273200 1512.715327 181.877119 -161.046585 -2.899501 -1.655902 6.981696 17.088546 6.424809 -0.804333 -4.387502 -0.000004 -0.000004 -1247.341932 -541.318009 -159.630851 0.000002 -0.000001 -10.858105 175.661155 200.866533 161.766351 0.000001 -0.000001 -12.079599 -91.847473 -176.051391 141.251959 2.190802 0.073903 -2.522501 -871.937742 -164.762153 -182.836487 -0.000001 -0.000007 -20.305000 -380.304851 37.449978 5.607041 0.000003 -0.000003 -16.771700 1443.923301 31.494036 17.176710 -2.029499 0.054301 -2.705207 -391.261076 -13.405652 -4.646237 0.000001 -0.000000 -20.030394 361.570380 53.067360 10.035020 -0.000001 -0.000004 -17.032700 10.990852 33.282778 -0.987684
13.171802 21.773603 47.982189 2890.654957 -2.609735 6.941595 -0.698599 0.806103 5.350897 -8.642565 24.144294 3.332646 -0.000001 0.000006 4.409104 1.821106 -0.361330 0.319638 0.000002 -0.000001 10.248293 8.568199 45.582743 -4.383980 -0.000000 0.000002 2.173889 0.485702 2.558740 0.192811 2.100601 -0.520899 6.016100 -5.726363 3.029747 -4.784577 5.536697 0.000001 0.000002 -43.880233 3.761336 -18.429633 -0.000001 0.000001 -12.362098 -2828.268992 -10.734657 27.252923 -0.000002 -0.000002 -10.273193 1512.022472 183.270983 -159.393106 -2.899499 -1.655899 6.981699 16.262380 5.991263 -0.036528 -4.387501 -0.000005 0.000002 -1247.537549 -542.602140 -159.814651 0.000002 0.000004 -10.858098 174.153049 202.859023 158.907834 0.000000 -0.000005 -12.079593 -91.036347 -175.264703 140.419564 2.190801 0.073899 -2.522504 -872.116693 -165.338580 -183.130349 0.000001 -0.000004 -20.304996 -379.448209 36.887943 5.426106 -0.000000 -0.000004 -16.771704 1443.379946 32.113524 17.394294 -2.029498 0.054300 -2.705204 -390.537649 -13.597074 -4.557971 0.000001 0.000000 -20.030397 366.343535 52.094464 5.775962 -0.000000 0.000001 -17.032700 7.333816 32.345556 -0.695809
13.252307 21.534903 48.052193 2890.477481 -2.451960 6.918626 -0.698601 0.806099 5.350898 -8.534266 23.457364 3.195026 0.000002 -0.000003 4.409099 1.522434 -0.309653 0.284623 0.000002 0.000001 10.248302 8.663920 45.427568 -4.252126 -0.000000 -0.000004 2.173897 0.438166 2.699213 0.198330 2.100603 -0.520900 6.016105 -5.559428 2.904005 -4.953807 5.536700 -0.000005 -0.000000 -43.496236 5.238018 -18.823486 0.000001 0.000003 -12.362098 -2827.272113 -11.583087 31.431308 -0.000002 -0.000002 -10.273197 1510.847352 184.792967 -158.349412 -2.899499 -1.655903 6.981707 15.663919 5.952935 0.430620 -4.387503 -0.000004 -0.000009 -1247.593065 -543.744147 -159.357507 0.000004 -0.000005 -10.858103 172.459066 204.914773 155.871310 0.000002 0.000003 -12.079604 -90.315468 -174.678359 140.282318 2.190801 0.073898 -2.522507 -872.455580 -165.676811 -183.372479 -0.000002 -0.000005 -20.305002 -378.524002 36.451132 5.205795 0.000003 -0.000002 -16.771706 1442.950026 32.619249 17.521793 -2.029500 0.054295 -2.705206 -389.956591 -13.954929 -4.743260 0.000001 0.000000 -20.030397 366.844187 50.531700 4.814556 -0.000001 -0.000004 -17.032698 6.921708 31.799629 -0.579835
13.325910 21.299706 48.114094 2890.317709 -2.322920 6.800490 -0.698596 0.806103 5.350904 -8.482275 22.809123 3.208481 0.000002 0.000001 4.409103 1.304477 -0.230280 0.267110 0.000002 0.000001 10.248301 8.766248 45.256424 -4.204800 -0.000002 -0.000003 2.173898 0.432431 2.741873 0.273088 2.100602 -0.520899 6.016100 -5.342668 2.802844 -5.303563 5.536699 -0.000002 0.000002 -43.329101 6.611327 -19.206292 -0.000000 0.000004 -12.362097 -2826.083550 -12.301261 35.567992 -0.000001 -0.000004 -10.273202 1509.785995 185.771692 -157.307562 -2.899499 -1.655900 6.981699 14.952418 5.750650 0.924829 -4.387499 -0.000003 -0.000003 -1247.820920 -544.907684 -158.872099 0.000000 -0.000001 -10.858093 170.984852 207.025110 152.676626 0.000003 0.000001 -12.079595 -89.759361 -174.357709 140.176942 2.190804 0.073903 -2.522497 -873.242691 -166.154829 -183.608121 -0.000002 -0.000005 -20.305000 -377.738640 35.961667 5.253802 0.000002 -0.000003 -16.771704 1443.005979 33.166866 17.666875 -2.029497 0.054302 -2.705204 -389.138335 -14.355179 -4.841845 0.000003 0.000001 -20.030399 367.185506 49.013673 3.899750 -0.000000 -0.000002 -17.032700 7.051892 31.110002 -1.391140
